<?xml version="1.0" encoding="utf-8"?>
<!-- Generator: Adobe Illustrator 23.0.6, SVG Export Plug-In . SVG Version: 6.00 Build 0)  -->
<svg version="1.1" id="Layer_1" xmlns="http://www.w3.org/2000/svg" xmlns:xlink="http://www.w3.org/1999/xlink" x="0px" y="0px"
	 viewBox="0 0 512 512" style="enable-background:new 0 0 512 512;" xml:space="preserve">
<style type="text/css">
	.st0{fill:none;stroke:#56565E;stroke-width:20;stroke-miterlimit:10;}
	.st1{fill:none;stroke:#077E9A;stroke-width:20;stroke-linecap:round;stroke-linejoin:round;stroke-miterlimit:10;}
	.st2{fill:none;stroke:#077E9A;stroke-width:17.462;stroke-miterlimit:10;}
</style>
<line class="st0" x1="256" y1="183" x2="256" y2="263.7"/>
<path class="st1" d="M376.5,20H135.5c-2.5,0-4.5,2-4.5,4.5v153.9c0,2.5,2,4.5,4.5,4.5h240.9c2.5,0,4.5-2,4.5-4.5V24.5
	C381,22,379,20,376.5,20z"/>
<path class="st2" d="M168,86.9c43.7-40.8,63.8-43,73.9-35.5c6.4,4.8,7,12.1,17.8,20.9c17.6,14.2,37.1,11.5,39,11.2
	c25.5-4,39.1-28.3,41.2-32.1"/>
<path class="st2" d="M168,156.3c43.7-40.8,63.8-43,73.9-35.5c6.4,4.8,7,12.1,17.8,20.9c17.6,14.2,37.1,11.5,39,11.2
	c25.5-4,39.1-28.3,41.2-32.1"/>
<path class="st0" d="M120.2,330.6v-26.9c0-22,18-40,40-40h191.6c22,0,40,18,40,40v26.9"/>
<path class="st1" d="M206.6,330.6H33.8c-2,0-3.6,1.6-3.6,3.6V467c0,2,1.6,3.6,3.6,3.6h172.8c2,0,3.6-1.6,3.6-3.6V334.2
	C210.2,332.2,208.6,330.6,206.6,330.6z"/>
<path class="st1" d="M478.2,330.6H305.4c-2,0-3.6,1.6-3.6,3.6V467c0,2,1.6,3.6,3.6,3.6h172.8c2,0,3.6-1.6,3.6-3.6V334.2
	C481.8,332.2,480.2,330.6,478.2,330.6z"/>
</svg>
