<?xml version="1.0" encoding="utf-8"?>
<!-- Generator: Adobe Illustrator 23.0.6, SVG Export Plug-In . SVG Version: 6.00 Build 0)  -->
<svg version="1.1" id="Layer_1" xmlns="http://www.w3.org/2000/svg" xmlns:xlink="http://www.w3.org/1999/xlink" x="0px" y="0px"
	 viewBox="0 0 256 256" style="enable-background:new 0 0 256 256;" xml:space="preserve">
<style type="text/css">
	.st0{opacity:0.3;fill:#FFFFFF;}
	.st1{fill:#FFFFFF;}
</style>
<path class="st0" d="M128,254.5c-8.4,0-16.2-3.3-22.1-9.2l-95.3-95.3c-5.9-5.9-9.2-13.8-9.2-22.1s3.3-16.2,9.2-22.1l95.3-95.3
	c5.9-5.9,13.8-9.2,22.1-9.2s16.2,3.3,22.1,9.2l95.3,95.3l0,0c5.9,5.9,9.2,13.8,9.2,22.1s-3.3,16.2-9.2,22.1l-95.3,95.3
	C144.2,251.3,136.4,254.5,128,254.5z M128,21.5c-3,0-5.9,1.2-8,3.3L24.8,120c-2.1,2.1-3.3,5-3.3,8c0,3,1.2,5.9,3.3,8l95.3,95.3
	c2.1,2.1,5,3.3,8,3.3c3,0,5.9-1.2,8-3.3l95.3-95.3c2.1-2.1,3.3-5,3.3-8c0-3-1.2-5.9-3.3-8l0,0L136,24.8
	C133.9,22.6,131,21.5,128,21.5z"/>
<path class="st1" d="M196.3,118.7l-59-59c-5.1-5.1-13.5-5.1-18.6,0l-59,59c-5.1,5.1-5.1,13.5,0,18.6l59,59c5.1,5.1,13.5,5.1,18.6,0
	l59-59C201.4,132.2,201.4,123.8,196.3,118.7z"/>
</svg>
