<?xml version="1.0" encoding="utf-8"?>
<!-- Generator: Adobe Illustrator 23.0.6, SVG Export Plug-In . SVG Version: 6.00 Build 0)  -->
<svg version="1.1" id="Layer_2" xmlns="http://www.w3.org/2000/svg" xmlns:xlink="http://www.w3.org/1999/xlink" x="0px" y="0px"
	 viewBox="0 0 256 256" style="enable-background:new 0 0 256 256;" xml:space="preserve">
<style type="text/css">
	.st0{fill:none;stroke:#FFFFFF;stroke-width:40;stroke-linecap:round;stroke-miterlimit:10;}
	.st1{fill:#FFFFFF;}
</style>
<line class="st0" x1="128" y1="230.5" x2="230.5" y2="128"/>
<line class="st0" x1="128" y1="25.5" x2="25.5" y2="128"/>
<line class="st0" x1="179.2" y1="76.8" x2="76.7" y2="179.3"/>
<path class="st1" d="M139.8,37.5L101.2,76c0,0,19.1-6.9,27.1,1s1,27.1,1,27.1l38.5-38.5c0,0-18,8.1-27.1-1
	C131.7,55.5,139.8,37.5,139.8,37.5z"/>
<path class="st1" d="M123.9,155.6l-38.5,38.5c0,0,19.1-6.9,27.1,1c7.9,7.9,1,27.1,1,27.1l38.5-38.5c0,0-18,8.1-27.1-1
	S123.9,155.6,123.9,155.6z"/>
</svg>
