<?xml version="1.0" encoding="utf-8"?>
<!-- Generator: Adobe Illustrator 23.0.6, SVG Export Plug-In . SVG Version: 6.00 Build 0)  -->
<svg version="1.1" id="Layer_1" xmlns="http://www.w3.org/2000/svg" xmlns:xlink="http://www.w3.org/1999/xlink" x="0px" y="0px"
	 viewBox="0 0 256 256" style="enable-background:new 0 0 256 256;" xml:space="preserve">
<style type="text/css">
	.st0{fill:none;stroke:#5EC8E4;stroke-width:6;stroke-miterlimit:10;}
</style>
<title>ico_property</title>
<path class="st0" d="M8.7,170.7h53.5c1.3,0,2.4,1.1,2.4,2.4v45c0,1.3-1.1,2.4-2.4,2.4H8.7c-1.3,0-2.4-1.1-2.4-2.4v-45
	C6.3,171.7,7.4,170.7,8.7,170.7z"/>
<line class="st0" x1="54.5" y1="170.7" x2="54.5" y2="112.5"/>
<line class="st0" x1="54.5" y1="255.5" x2="54.5" y2="220.5"/>
<line class="st0" x1="114.8" y1="112.5" x2="114.8" y2="255.5"/>
<line class="st0" x1="85.8" y1="167.7" x2="85.8" y2="255.5"/>
<path class="st0" d="M32.3,170.7v-65.8c0,0-3.2-29.2,53.5-29.2s53.5,29.2,53.5,29.2v53.6c0,0-8.2,17.1-24.4,17.1"/>
<path class="st0" d="M89.5,59.4h-1.4c-11.9,0-21.5-9.6-21.5-21.5V25.2c0-11.9,9.6-21.5,21.5-21.5h1.4c11.9,0,21.5,9.6,21.5,21.5
	v12.7C111.1,49.8,101.4,59.4,89.5,59.4z"/>
<line class="st0" x1="154.1" y1="144.2" x2="209" y2="144.2"/>
<circle class="st0" cx="229.5" cy="144" r="22.1"/>
<circle class="st0" cx="229.5" cy="75.7" r="22.1"/>
<circle class="st0" cx="229.5" cy="207.3" r="22.1"/>
<path class="st0" d="M207.4,75.7h-20.1c-3.2,0-5.7,2.6-5.7,5.7v121.4c0,3.2,2.6,5.7,5.7,5.7h20.1"/>
</svg>
