<?xml version="1.0" encoding="utf-8"?>
<!-- Generator: Adobe Illustrator 23.0.6, SVG Export Plug-In . SVG Version: 6.00 Build 0)  -->
<svg version="1.1" id="Layer_1" xmlns="http://www.w3.org/2000/svg" xmlns:xlink="http://www.w3.org/1999/xlink" x="0px" y="0px"
	 viewBox="0 0 256 216" style="enable-background:new 0 0 256 216;" xml:space="preserve">
<style type="text/css">
	.st0{fill:none;stroke:#5EC8E4;stroke-width:6;stroke-miterlimit:10;}
</style>
<rect x="31.9" y="122.7" transform="matrix(0.7071 -0.7071 0.7071 0.7071 -103.3075 83.6339)" class="st0" width="34.8" height="87.6"/>
<path class="st0" d="M41.3,133.9c0,0,28.1-28.8,34.2-31.6c6.1-2.9,33-1.8,38.4-1.1c5.4,0.7,16.5,10.4,16.5,10.4s28.4,0,39.9,0
	c20.5,0,16.5,30.2,0,30.2c-23.7,0-51.7,0-51.7,0"/>
<path class="st0" d="M85.2,177.8c0,0,4.6-4.9,10.8-4.9c6.1,0,81.9,0,81.9,0s43.1-36.6,47.4-43c4.3-6.5,24.7-37.8,24.7-37.8
	s-30.5-22.2-44.9,14.1c-9.3,5.4-22.2,13-22.2,13"/>
<path class="st0" d="M106,89.7V76c0,0,6.1-18,44.5-18s42.7,15.8,42.7,15.8v15.8"/>
<path class="st0" d="M149.7,4.2C171,4.2,171,23.9,171,23.9v15.4c0,0-2.7,18.7-20.5,18.7s-21.9-18-21.9-18V23.6
	C128.6,23.6,128.3,4.2,149.7,4.2z"/>
</svg>
