<?xml version="1.0" encoding="utf-8"?>
<!-- Generator: Adobe Illustrator 23.0.6, SVG Export Plug-In . SVG Version: 6.00 Build 0)  -->
<svg version="1.1" id="Layer_1" xmlns="http://www.w3.org/2000/svg" xmlns:xlink="http://www.w3.org/1999/xlink" x="0px" y="0px"
	 viewBox="0 0 35 35" style="enable-background:new 0 0 35 35;" xml:space="preserve">
<style type="text/css">
	.st0{fill:#478787;}
	.st1{fill:#FFFFFF;}
	.st2{fill:none;}
	.st3{fill:none;stroke:#56565E;stroke-width:2;stroke-linecap:round;stroke-miterlimit:10;}
</style>
<title>pattern</title>
<circle class="st0" cx="9.5" cy="9.5" r="9.5"/>
<path class="st1" d="M15,7.1c-0.1-0.1-0.3-0.1-0.5,0v1.5h-4.2V4.4h1.5C12,4.3,12,4,11.8,3.9l-2-2.2c-0.1-0.1-0.4-0.1-0.5,0L7,3.9
	C6.9,4,6.9,4.3,7,4.4h1.5v4.2H4.4V7.1C4.3,7,4,7,3.9,7.1L1.7,9.2c-0.1,0.1-0.1,0.4,0,0.5l2.1,2.1c0.1,0.1,0.4,0.1,0.5,0v-1.3h4.3
	v4.2H7.1c-0.1,0-0.1,0.2,0,0.3l2.1,2.1c0.1,0.1,0.4,0.1,0.5,0l2.1-2.1c0.1-0.1,0.1-0.3,0-0.5h-1.3v-4.2h4.2v1.5
	c0.1,0.1,0.3,0.1,0.5,0l2.1-2.1c0.1-0.1,0.1-0.4,0-0.5L15,7.1z"/>
<g>
	<polygon class="st2" points="19.6,22.6 26.3,18.5 21,20.1 	"/>
	<path class="st1" d="M33.6,23.4l-2.5-8c-0.5-1.5-2-2.3-3.5-1.8c-1.4,0.5-2.2,1.9-1.7,3.3l-0.4-1.3c-0.5-1.5-2-2.3-3.5-1.8l0,0
		c-1.5,0.5-2.3,2-1.8,3.5l-2.6-8.7C17,7,15.5,6.2,14,6.7s-2.3,2-1.8,3.5l4.3,14.2l-3.8-2c-1.3-0.7-3-0.3-3.8,1.1l0,0
		c-0.7,1.3-0.2,3,1.1,3.7l11.1,6C25.9,35.7,36,31.1,33.6,23.4z"/>
</g>
<g>
	<path class="st3" d="M21,20.1L17.5,8.5C17,7,15.5,6.2,14,6.7l0,0c-1.5,0.5-2.3,2-1.8,3.5l5,16.5"/>
	<path class="st3" d="M26.3,18.5l-0.9-3c-0.5-1.5-2-2.3-3.5-1.8l0,0l0,0c-1.5,0.5-2.3,2-1.8,3.5l0.9,2.9"/>
	<path class="st3" d="M16.5,24.4l-3.9-2c-1.3-0.7-3-0.3-3.8,1.1l0,0l0,0c-0.7,1.3-0.2,3,1.1,3.7l11.1,6c4.8,2.5,14.8-2.1,12.5-9.9
		l-2.5-8c-0.5-1.5-2-2.3-3.5-1.8l0,0c-1.4,0.5-2.2,2-1.7,3.4l0.5,1.6"/>
</g>
</svg>
