<?xml version="1.0" encoding="utf-8"?>
<!-- Generator: Adobe Illustrator 22.0.1, SVG Export Plug-In . SVG Version: 6.00 Build 0)  -->
<svg version="1.1" id="_3x2" xmlns="http://www.w3.org/2000/svg" xmlns:xlink="http://www.w3.org/1999/xlink" x="0px" y="0px"
	 viewBox="0 0 512 288" style="enable-background:new 0 0 512 288;" xml:space="preserve">
<style type="text/css">
	.st0{fill:none;stroke:#6ABD45;stroke-miterlimit:10;}
	.st1{opacity:0.5;}
	.st2{fill:#F1F1F1;}
</style>
<title>grid-3x2</title>
<line class="st0" x1="256" y1="0" x2="256" y2="288"/>
<g class="st1">
	<g>
		<path d="M395.7,163.6h-20.9v-4.9l9.6-12.2c1.2-1.7,2.1-3.2,2.7-4.5c0.6-1.3,0.9-2.5,0.9-3.7c0-1.6-0.3-2.8-0.8-3.7
			c-0.5-0.9-1.3-1.3-2.4-1.3c-1.1,0-2,0.5-2.7,1.6c-0.7,1-1,2.5-1,4.4h-6.9c0-2.2,0.5-4.2,1.4-6s2.2-3.2,3.8-4.2
			c1.6-1,3.5-1.5,5.6-1.5c3.2,0,5.6,0.9,7.4,2.6c1.7,1.7,2.6,4.2,2.6,7.5c0,2-0.5,4-1.5,6.1c-1,2.1-2.7,4.6-5.3,7.6l-4.6,6.5h12.1
			V163.6z"/>
	</g>
</g>
<g class="st1">
	<g>
		<path d="M135.9,162.6H129v-27.1l-6.8,2.6v-5.8l13-5.3h0.7V162.6z"/>
	</g>
</g>
<g>
	<g>
		<path class="st2" d="M393.7,161.6h-20.9v-4.9l9.6-12.2c1.2-1.7,2.1-3.2,2.7-4.5c0.6-1.3,0.9-2.5,0.9-3.7c0-1.6-0.3-2.8-0.8-3.7
			c-0.5-0.9-1.3-1.3-2.4-1.3c-1.1,0-2,0.5-2.7,1.6c-0.7,1-1,2.5-1,4.4h-6.9c0-2.2,0.5-4.2,1.4-6s2.2-3.2,3.8-4.2
			c1.6-1,3.5-1.5,5.6-1.5c3.2,0,5.6,0.9,7.4,2.6c1.7,1.7,2.6,4.2,2.6,7.5c0,2-0.5,4-1.5,6.1c-1,2.1-2.7,4.6-5.3,7.6l-4.6,6.5h12.1
			V161.6z"/>
	</g>
</g>
<g>
	<g>
		<path class="st2" d="M133.9,160.6H127v-27.1l-6.8,2.6v-5.8l13-5.3h0.7V160.6z"/>
	</g>
</g>
</svg>
