<?xml version="1.0" encoding="utf-8"?>
<!-- Generator: Adobe Illustrator 22.0.1, SVG Export Plug-In . SVG Version: 6.00 Build 0)  -->
<svg version="1.1" id="_3x3" xmlns="http://www.w3.org/2000/svg" xmlns:xlink="http://www.w3.org/1999/xlink" x="0px" y="0px"
	 viewBox="0 0 512 288" style="enable-background:new 0 0 512 288;" xml:space="preserve">
<style type="text/css">
	.st0{fill:none;stroke:#6ABD45;stroke-miterlimit:10;}
	.st1{opacity:0.5;}
	.st2{fill:#F1F1F1;}
</style>
<title>grid-3x3</title>
<line class="st0" x1="170.7" y1="0" x2="170.7" y2="288"/>
<line class="st0" x1="341.3" y1="0" x2="341.3" y2="288"/>
<g class="st1">
	<g>
		<path d="M267.6,159.6h-20.9v-4.9l9.6-12.2c1.2-1.7,2.1-3.2,2.7-4.5c0.6-1.3,0.9-2.5,0.9-3.7c0-1.6-0.3-2.8-0.8-3.7
			c-0.5-0.9-1.3-1.3-2.4-1.3c-1.1,0-2,0.5-2.7,1.6c-0.7,1-1,2.5-1,4.4h-6.9c0-2.2,0.5-4.2,1.4-6s2.2-3.2,3.8-4.2
			c1.6-1,3.5-1.5,5.6-1.5c3.2,0,5.6,0.9,7.4,2.6c1.7,1.7,2.6,4.2,2.6,7.5c0,2-0.5,4-1.5,6.1c-1,2.1-2.7,4.6-5.3,7.6l-4.6,6.5h12.1
			V159.6z"/>
	</g>
</g>
<g class="st1">
	<g>
		<path d="M423.5,138.7h3.3c1.3,0,2.2-0.4,2.8-1.3c0.6-0.9,0.9-2.1,0.9-3.6c0-1.4-0.3-2.5-0.9-3.3c-0.6-0.8-1.4-1.2-2.5-1.2
			c-1,0-1.7,0.4-2.4,1.1c-0.6,0.7-0.9,1.7-0.9,2.8H417c0-1.9,0.4-3.5,1.3-5c0.9-1.5,2.1-2.6,3.6-3.5s3.2-1.2,5.1-1.2
			c3.3,0,5.8,0.9,7.7,2.7s2.8,4.3,2.8,7.4c0,1.6-0.4,3.1-1.3,4.5c-0.8,1.4-1.9,2.4-3.3,3.2c1.7,0.7,2.9,1.8,3.7,3.2
			c0.8,1.4,1.2,3.1,1.2,5.1c0,3.2-1,5.7-3,7.6c-2,1.9-4.7,2.9-7.9,2.9c-3,0-5.5-0.9-7.4-2.8c-1.9-1.9-2.8-4.3-2.8-7.4h6.9
			c0,1.3,0.3,2.3,1,3.2c0.7,0.9,1.5,1.3,2.5,1.3c1.2,0,2.1-0.4,2.8-1.3c0.7-0.9,1-2.1,1-3.5c0-3.5-1.4-5.3-4.1-5.3h-3.4V138.7z"/>
	</g>
</g>
<g class="st1">
	<g>
		<path d="M91.2,159.6h-6.9v-27.1l-6.8,2.6v-5.8l13-5.3h0.7V159.6z"/>
	</g>
</g>
<g>
	<g>
		<path class="st2" d="M265.6,157.6h-20.9v-4.9l9.6-12.2c1.2-1.7,2.1-3.2,2.7-4.5c0.6-1.3,0.9-2.5,0.9-3.7c0-1.6-0.3-2.8-0.8-3.7
			c-0.5-0.9-1.3-1.3-2.4-1.3c-1.1,0-2,0.5-2.7,1.6c-0.7,1-1,2.5-1,4.4h-6.9c0-2.2,0.5-4.2,1.4-6s2.2-3.2,3.8-4.2
			c1.6-1,3.5-1.5,5.6-1.5c3.2,0,5.6,0.9,7.4,2.6c1.7,1.7,2.6,4.2,2.6,7.5c0,2-0.5,4-1.5,6.1c-1,2.1-2.7,4.6-5.3,7.6l-4.6,6.5h12.1
			V157.6z"/>
	</g>
</g>
<g>
	<g>
		<path class="st2" d="M421.5,136.7h3.3c1.3,0,2.2-0.4,2.8-1.3c0.6-0.9,0.9-2.1,0.9-3.6c0-1.4-0.3-2.5-0.9-3.3
			c-0.6-0.8-1.4-1.2-2.5-1.2c-1,0-1.7,0.4-2.4,1.1c-0.6,0.7-0.9,1.7-0.9,2.8H415c0-1.9,0.4-3.5,1.3-5c0.9-1.5,2.1-2.6,3.6-3.5
			s3.2-1.2,5.1-1.2c3.3,0,5.8,0.9,7.7,2.7s2.8,4.3,2.8,7.4c0,1.6-0.4,3.1-1.3,4.5c-0.8,1.4-1.9,2.4-3.3,3.2c1.7,0.7,2.9,1.8,3.7,3.2
			c0.8,1.4,1.2,3.1,1.2,5.1c0,3.2-1,5.7-3,7.6c-2,1.9-4.7,2.9-7.9,2.9c-3,0-5.5-0.9-7.4-2.8c-1.9-1.9-2.8-4.3-2.8-7.4h6.9
			c0,1.3,0.3,2.3,1,3.2c0.7,0.9,1.5,1.3,2.5,1.3c1.2,0,2.1-0.4,2.8-1.3c0.7-0.9,1-2.1,1-3.5c0-3.5-1.4-5.3-4.1-5.3h-3.4V136.7z"/>
	</g>
</g>
<g>
	<g>
		<path class="st2" d="M89.2,157.6h-6.9v-27.1l-6.8,2.6v-5.8l13-5.3h0.7V157.6z"/>
	</g>
</g>
</svg>
