<svg id="Layer_2" data-name="Layer 2" xmlns="http://www.w3.org/2000/svg" viewBox="0 0 57.92 51.07"><defs><style>.cls-1{fill:#a8dd63;}.cls-2{fill:#d79c00;}</style></defs><title>ico-warning</title><path class="cls-1" d="M29.32,27.88" transform="translate(-0.36 -2.34)"/><path class="cls-2" d="M57.3,42.85l-22-37.07a7,7,0,0,0-12.05,0l-22,37.07a7,7,0,0,0,6,10.57H51.27a7,7,0,0,0,6-10.57Zm-28,8.07a5.55,5.55,0,1,1,5.54-5.55A5.54,5.54,0,0,1,29.32,50.92Zm3.81-17.55a3.82,3.82,0,1,1-7.63,0l-1-18.75c0-2.1,2.71-3.81,4.82-3.81s4.81,1.71,4.81,3.81Z" transform="translate(-0.36 -2.34)"/></svg>