<?xml version="1.0" encoding="utf-8"?>
<!-- Generator: Adobe Illustrator 22.0.1, SVG Export Plug-In . SVG Version: 6.00 Build 0)  -->
<svg version="1.1" id="Layer_1" xmlns="http://www.w3.org/2000/svg" xmlns:xlink="http://www.w3.org/1999/xlink" x="0px" y="0px"
	 viewBox="0 0 720 720" style="enable-background:new 0 0 720 720;" xml:space="preserve">
<style type="text/css">
	.st0{fill:#F5F5F5;}
</style>
<path class="st0" d="M359.5,472.5h-92.9c0-101.2-92.9-110.4-92.9-248.3c0-59.8,62.5-149,185.8-149s185.8,89.2,185.8,149
	c0,137.9-92.9,147.1-92.9,248.3C416.5,472.5,359.5,472.5,359.5,472.5L359.5,472.5z"/>
<path class="st0" d="M447.7,602.2H271.3c-2.6,0-4.7-2.1-4.7-4.7v-74c0-2.6,2.1-4.7,4.7-4.7h176.3c2.6,0,4.7,2.1,4.7,4.7v74
	C452.4,600.1,450.3,602.2,447.7,602.2z"/>
<circle class="st0" cx="359.5" cy="595.5" r="50.3"/>
</svg>
