<?xml version="1.0" encoding="utf-8"?>
<!-- Generator: Adobe Illustrator 22.0.1, SVG Export Plug-In . SVG Version: 6.00 Build 0)  -->
<svg version="1.1" id="Layer_1" xmlns="http://www.w3.org/2000/svg" xmlns:xlink="http://www.w3.org/1999/xlink" x="0px" y="0px"
	 viewBox="0 0 720 720" style="enable-background:new 0 0 720 720;" xml:space="preserve">
<style type="text/css">
	.st0{fill:#F5F5F5;}
</style>
<path class="st0" d="M641.9,329.4l-61-20.2c-3.8-1.3-7.9-1.3-11.7,0l-0.2,0.1c-5.3-21.9-13.9-42.5-25.4-61.3l0.2-0.1
	c3.6-1.8,6.5-4.7,8.3-8.3l28.9-57.4c3.6-7.2,2.2-15.9-3.5-21.6l-18.1-18.1c-5.7-5.7-14.4-7.1-21.6-3.5l-57.5,29
	c-3.6,1.8-6.5,4.7-8.3,8.3l-0.1,0.2c-18.7-11.4-39.3-20.1-61.3-25.4l0.1-0.2c1.3-3.8,1.3-7.9,0-11.7l-20.2-61
	c-2.5-7.7-9.7-12.8-17.8-12.8h-25.6c-8.1,0-15.2,5.2-17.8,12.8l-20.2,61c-1.3,3.8-1.3,7.9,0,11.7l0.1,0.2
	c-21.9,5.3-42.5,13.9-61.3,25.4l-0.1-0.2c-1.8-3.6-4.7-6.5-8.3-8.3l-57.2-29c-7.2-3.6-15.9-2.2-21.6,3.5l-18.1,18.1
	c-5.7,5.7-7.1,14.4-3.5,21.6l28.9,57.4c1.8,3.6,4.7,6.5,8.3,8.3l0.2,0.1c-11.4,18.7-20.1,39.3-25.4,61.3l-0.2-0.1
	c-3.8-1.3-7.9-1.3-11.7,0l-61,20.2c-7.7,2.5-12.8,9.7-12.8,17.8v25.6c0,8.1,5.2,15.2,12.8,17.8l61,20.2c3.8,1.3,7.9,1.3,11.7,0
	l0.2-0.1c5.3,21.9,13.9,42.5,25.4,61.3l-0.2,0.1c-3.6,1.8-6.5,4.7-8.3,8.3l-29,57.3c-3.6,7.2-2.2,15.9,3.5,21.6l18.1,18.1
	c5.7,5.7,14.4,7.1,21.6,3.5l57.4-28.9c3.6-1.8,6.5-4.7,8.3-8.3l0.1-0.2c18.7,11.4,39.3,20.1,61.3,25.4l-0.1,0.2
	c-1.3,3.8-1.3,7.9,0,11.7l20.2,61c2.5,7.7,9.7,12.8,17.8,12.8h25.6c8.1,0,15.2-5.2,17.8-12.8l20.2-61c1.3-3.8,1.3-7.9,0-11.7
	l-0.1-0.2c21.9-5.3,42.5-13.9,61.3-25.4l0.1,0.2c1.8,3.6,4.7,6.5,8.3,8.3l57.4,28.9c7.2,3.6,15.9,2.2,21.6-3.5l18.1-18.1
	c5.7-5.7,7.1-14.4,3.5-21.6l-29-57.4c-1.8-3.6-4.7-6.5-8.3-8.3l-0.2-0.1c11.4-18.7,20.1-39.3,25.4-61.3l0.2,0.1
	c3.8,1.3,7.9,1.3,11.7,0l61-20.2c7.7-2.5,12.8-9.7,12.8-17.8v-25.6C654.7,339.1,649.6,332,641.9,329.4z M360,541
	c-100,0-181-81-181-181s81-181,181-181s181,81,181,181S460,541,360,541z"/>
<path class="st0" d="M360,208c-83.9,0-152,68.1-152,152s68.1,152,152,152s152-68.1,152-152S443.9,208,360,208z M360,447
	c-48,0-87-39-87-87s39-87,87-87s87,39,87,87S408,447,360,447z"/>
</svg>
