<?xml version="1.0" encoding="utf-8"?>
<!-- Generator: Adobe Illustrator 22.0.1, SVG Export Plug-In . SVG Version: 6.00 Build 0)  -->
<svg version="1.1" id="Layer_1" xmlns="http://www.w3.org/2000/svg" xmlns:xlink="http://www.w3.org/1999/xlink" x="0px" y="0px"
	 viewBox="0 0 720 720" style="enable-background:new 0 0 720 720;" xml:space="preserve">
<style type="text/css">
	.st0{fill:#F5F5F5;}
</style>
<rect x="435.6" y="341.2" transform="matrix(0.7071 -0.7071 0.7071 0.7071 -194.9211 470.6098)" class="st0" width="70" height="258.8"/>
<path class="st0" d="M157.9,157.9c-71.5,71.5-71.5,187.5,0,259.1s187.5,71.5,259.1,0s71.5-187.5,0-259.1S229.5,86.4,157.9,157.9z
	 M379.1,379.1c-50.6,50.6-132.6,50.6-183.2,0s-50.6-132.6,0-183.2s132.6-50.6,183.2,0S429.7,328.5,379.1,379.1z"/>
<g>
	<path class="st0" d="M229.5,360.5c-3.8,0-7.7-1.5-10.6-4.4c-37.8-37.8-37.8-99.3,0-137.2c5.8-5.9,15.3-5.9,21.2,0
		c5.9,5.8,5.9,15.3,0,21.2c-26.1,26.2-26.1,68.7,0,94.8c5.9,5.9,5.9,15.4,0,21.2C237.2,359,233.3,360.5,229.5,360.5z"/>
</g>
</svg>
