<?xml version="1.0" encoding="utf-8"?>
<!-- Generator: Adobe Illustrator 22.0.1, SVG Export Plug-In . SVG Version: 6.00 Build 0)  -->
<svg version="1.1" id="Layer_1" xmlns="http://www.w3.org/2000/svg" xmlns:xlink="http://www.w3.org/1999/xlink" x="0px" y="0px"
	 viewBox="0 0 720 720" style="enable-background:new 0 0 720 720;" xml:space="preserve">
<style type="text/css">
	.st0{fill:#F5F5F5;}
</style>
<path class="st0" d="M641.8,350.5l-77-77c-5.3-5.3-13.8-5.3-19.1,0V325H395V174.3h51.5c5.3-5.3,5.3-13.9,0.1-19.1l-77-77
	c-5.3-5.3-13.8-5.3-19.1,0l-77,77c-5.3,5.3-5.3,13.8,0,19.1H325V325H174.3v-51.6c-5.3-5.3-13.8-5.3-19.1,0l-77,77
	c-5.3,5.3-5.3,13.8,0,19.1l77,77c5.2,5.3,13.8,5.3,19.1-0.1V395H325v150.7h-51.6c-5.3,5.3-5.3,13.8,0,19.1l77,77
	c5.3,5.3,13.8,5.3,19.1,0l77-77c5.3-5.2,5.3-13.8-0.1-19.1H395V395h150.7v51.5c5.3,5.3,13.9,5.3,19.1,0.1l77-77
	C647.1,364.3,647.1,355.8,641.8,350.5z"/>
</svg>
