<?xml version="1.0" encoding="utf-8"?>
<!-- Generator: Adobe Illustrator 22.0.1, SVG Export Plug-In . SVG Version: 6.00 Build 0)  -->
<svg version="1.1" id="Layer_1" xmlns="http://www.w3.org/2000/svg" xmlns:xlink="http://www.w3.org/1999/xlink" x="0px" y="0px"
	 viewBox="0 0 960 540" style="enable-background:new 0 0 960 540;" xml:space="preserve">
<style type="text/css">
	.st0{fill:#F1F1F1;}
	.st1{fill:#E7E7E9;}
	.st2{fill:#DDDDDF;}
</style>
<rect class="st0" width="960" height="540"/>
<g>
	<path class="st1" d="M656,355.5v-54.1c0-2.7-0.9-5.8-1.8-8.4l-1.8-2.7c-0.4-0.9-1.3-1.8-1.8-2.2L546.4,183.8c-4-4-10.6-4-14.6,0
		L307.9,362.1c1.8,1.3,3.5,2.2,5.8,2.2h333.4C652,364.3,656,360.3,656,355.5z"/>
	<path class="st2" d="M356.2,241.9L238.9,359.7c-1.7,1.8-0.5,4.7,2,4.8l241.8,0.3L370.9,241.9C366.9,237.9,360.2,237.9,356.2,241.9z
		"/>
	<ellipse class="st1" cx="410.3" cy="174.9" rx="25.7" ry="25.7"/>
	<path class="st2" d="M540.2,180.7l45.7,183.6h133.5c2.4,0,3.7-2.9,1.9-4.7L570.8,207.7L546,182.9
		C544.7,182,542.5,181.1,540.2,180.7z"/>
</g>
</svg>
